<svg xmlns="http://www.w3.org/2000/svg" xmlns:xlink="http://www.w3.org/1999/xlink" version="1.1" x="0px" y="0px" viewBox="950 1450 100 125" enable-background="new 950 1450 100 100" xml:space="preserve"><g><path d="M1000,1539.2c-11.9,0-14.5-2.2-14.9-2.6l-0.4-0.4l2.7-11h25l2.7,11l-0.4,0.4C1014.5,1537.1,1011.9,1539.2,1000,1539.2z    M987.3,1535.4c1.1,0.5,4.4,1.6,12.7,1.6c8.3,0,11.6-1.1,12.7-1.6l-2-7.9h-21.5L987.3,1535.4z"/></g><g><g><path d="M1000,1520.1c-1.6,0-2.9-1.3-2.9-2.9v-53.5c0-1.6,1.3-2.9,2.9-2.9s2.9,1.3,2.9,2.9v53.5    C1002.9,1518.8,1001.6,1520.1,1000,1520.1z M1000,1463c-0.4,0-0.6,0.3-0.6,0.6v53.5c0,0.4,0.3,0.6,0.6,0.6c0.4,0,0.6-0.3,0.6-0.6    v-53.5C1000.6,1463.3,1000.4,1463,1000,1463z"/></g></g><g><path d="M990.8,1520.3v-2.6c0-0.8,0.6-1.4,1.4-1.4h15.6c0.8,0,1.4,0.6,1.4,1.4v2.6H990.8z"/></g><g><path d="M986.7,1527.3v-5.8c0-1.1,0.9-2.1,2.1-2.1h22.4c1.1,0,2.1,0.9,2.1,2.1v5.8H986.7z"/></g><g><g><path d="M996.4,1521.5v-6.8c0-2,1.6-3.6,3.6-3.6c2,0,3.6,1.6,3.6,3.6v6.8H996.4z"/></g></g><g><path d="M991.9,1538.1c-0.3,0-0.5-0.2-0.5-0.5v-5.4c0-0.3,0.2-0.5,0.5-0.5s0.5,0.2,0.5,0.5v5.4   C992.4,1537.8,992.1,1538.1,991.9,1538.1z"/></g><g><path d="M995.9,1538.1c-0.3,0-0.5-0.2-0.5-0.5v-5.4c0-0.3,0.2-0.5,0.5-0.5s0.5,0.2,0.5,0.5v5.4   C996.3,1537.8,996.1,1538.1,995.9,1538.1z"/></g><g><path d="M1005.4,1538.1c-0.3,0-0.5-0.2-0.5-0.5v-3.2c0-0.3,0.2-0.5,0.5-0.5s0.5,0.2,0.5,0.5v3.2   C1005.9,1537.8,1005.7,1538.1,1005.4,1538.1z"/></g><g><path d="M1007.4,1538.1c-0.3,0-0.5-0.2-0.5-0.5v-7.5c0-0.3,0.2-0.5,0.5-0.5s0.5,0.2,0.5,0.5v7.5   C1007.9,1537.8,1007.7,1538.1,1007.4,1538.1z"/></g><g><path d="M993.9,1538.1c-0.3,0-0.5-0.2-0.5-0.5v-8.6c0-0.3,0.2-0.5,0.5-0.5s0.5,0.2,0.5,0.5v8.6   C994.4,1537.8,994.2,1538.1,993.9,1538.1z"/></g><text x="950" y="1565" fill="#000000" font-size="5px" font-weight="bold" font-family="'Helvetica Neue', Helvetica, Arial-Unicode, Arial, Sans-serif"></text><text x="950" y="1570" fill="#000000" font-size="5px" font-weight="bold" font-family="'Helvetica Neue', Helvetica, Arial-Unicode, Arial, Sans-serif"></text></svg>