<svg xmlns="http://www.w3.org/2000/svg" version="1.1" viewBox="-5.0 -10.0 110.0 135.0">
 <path d="m73.625 4.8594h-48.141c-13.875 0-25.156 11.281-25.156 25.141v39.594c0 13.859 11.281 25.141 25.141 25.141h48.141c13.875 0 25.141-11.281 25.141-25.141v-39.594c0-13.859-11.281-25.141-25.141-25.141zm-48.156 7.8125h48.141c7.25 0 13.484 4.4844 16.062 10.828l-24.5 17.844c-9.9062 7.2188-23.625 7.0312-33.344-0.45312l-22.438-17.297c2.5625-6.3906 8.7969-10.922 16.094-10.922zm48.156 74.266h-48.141c-9.5625 0-17.328-7.7812-17.328-17.328v-37.109l18.938 14.578c6.3594 4.8906 14.047 7.3438 21.75 7.3438s14.75-2.25 20.969-6.7812l21.172-15.422v37.375c0 9.5625-7.7812 17.328-17.328 17.328z"/>
<text x="0.0" y="117.5" font-size="5.0" font-weight="bold" font-family="Arbeit Regular, Helvetica, Arial-Unicode, Arial, Sans-serif" fill="#000000"></text><text x="0.0" y="122.5" font-size="5.0" font-weight="bold" font-family="Arbeit Regular, Helvetica, Arial-Unicode, Arial, Sans-serif" fill="#000000"></text></svg>