<svg xmlns="http://www.w3.org/2000/svg" xmlns:xlink="http://www.w3.org/1999/xlink" version="1.1" x="0px" y="0px" viewBox="0 0 530 662.5" style="enable-background:new 0 0 530 530;" xml:space="preserve"><g><g><path d="M170.27,295.075l10.893-114.327c1.212-13.008-3.112-25.978-11.865-35.585c-18.438-20.236-50.259-20.168-68.607,0.01    c-8.771,9.645-13.094,22.618-11.859,35.596l10.892,114.308C47.921,310.34,9.998,358.321,9.998,415v95c0,5.522,4.478,10,10,10h230    c5.522,0,10-4.478,10-10v-95C259.998,358.32,222.074,310.338,170.27,295.075z M108.741,178.874    C107.276,163.463,119.335,150,134.996,150c15.079,0,27.746,12.883,26.255,28.872l-10.68,112.097    c-10.081-1.258-20.533-1.325-31.148,0L108.741,178.874z M239.998,460h-131.94c-5.522,0-10,4.478-10,10s4.478,10,10,10h131.94v20    h-210v-20h38.06c5.522,0,10-4.478,10-10s-4.478-10-10-10h-38.06v-45c0-57.897,47.103-105,105-105s105,47.103,105,105V460z"/><path d="M519.699,507.574L489.998,388.77V350c0-5.522-4.478-10-10-10h-10.849c-3.341-19.821-16.427-36.363-34.151-44.522V180.17    c0-5.522-4.478-10-10-10s-10,4.478-10,10v110.055c-4.731-0.393-5.756-0.152-25-0.225c-1.685,0-3.35,0.088-5,0.225V45    c0-8.271,6.729-15,15-15s15,6.729,15,15v95.17c0,5.522,4.478,10,10,10s10-4.478,10-10V45c0-19.299-15.701-35-35-35    s-35,15.701-35,35v250.478c-17.723,8.159-30.81,24.701-34.151,44.522h-10.849c-5.522,0-10,4.478-10,10v38.77l-29.701,118.805    c-1.578,6.313,3.206,12.426,9.701,12.426h220C516.506,520,521.274,513.876,519.699,507.574z M389.998,310h20    c18.604,0,34.282,12.768,38.734,30h-97.468C355.716,322.768,371.394,310,389.998,310z M329.998,360h140v20h-140V360z M389.998,400    v100h-33.672l12.5-100H389.998z M409.998,400h21.172l12.5,100h-33.672V400z M327.806,400h20.865l-12.5,100h-33.365L327.806,400z     M463.826,500l-12.5-100h20.865l25,100H463.826z"/></g></g><text x="0" y="545" fill="#000000" font-size="5px" font-weight="bold" font-family="'Helvetica Neue', Helvetica, Arial-Unicode, Arial, Sans-serif"></text><text x="0" y="550" fill="#000000" font-size="5px" font-weight="bold" font-family="'Helvetica Neue', Helvetica, Arial-Unicode, Arial, Sans-serif"></text></svg>