<svg xmlns="http://www.w3.org/2000/svg" xmlns:xlink="http://www.w3.org/1999/xlink" version="1.1" x="0px" y="0px" viewBox="0 0 100 125" enable-background="new 0 0 100 100" xml:space="preserve"><path d="M94.191,42.498l-18.76-18.58c-0.855-0.852-2.369-1.465-3.588-1.465L54.829,22.72l0.053-0.197  c0.325-1.259-0.083-2.94-0.943-3.914l-1.509-1.694c-0.575-0.649-1.426-1.022-2.325-1.022c-0.641,0-1.246,0.184-1.755,0.54  l-0.391,0.276c-0.04,0.026-0.062,0.026-0.066,0.026s-0.026-0.018-0.048-0.057l-0.386-0.732c-0.631-1.198-2.132-2.102-3.483-2.102  H27.009c-0.961,0-2.448,0.149-3.387,0.333L11.75,16.543c-1.202,0.241-2.597,1.207-3.247,2.246l-3.045,4.888  c-0.807,1.29-0.526,3.075,0.636,4.058l4.831,4.102c0.614,0.522,1.482,0.825,2.377,0.825c0.614,0,1.203-0.145,1.694-0.413  l0.632-0.346c0.145-0.079,0.381-0.013,0.465,0.123l15.224,24.503c0.527,0.847,1.531,2.022,2.282,2.677l4.966,4.304  c0.403,0.354,0.86,1.224,0.921,1.759l0.64,5.752c0.114,1.013,0.57,2.522,1.036,3.431l4.264,8.287c0.553,1.07,1.83,2.167,2.975,2.554  l2.036,0.68c0.364,0.123,0.764,0.185,1.185,0.185c1.049,0,2.088-0.364,2.791-0.974l6.388-5.563c0.592-0.514,0.948-1.246,0.974-2.014  c0.026-0.75-0.246-1.457-0.786-2.022c0.005,0,0.005-0.005,0.009-0.005l20.979-14.648c0.896-0.627,1.936-1.843,2.418-2.825  l3.089-6.327c0.285-0.583,1.026-1.46,1.558-1.833l4.816-3.413c0.658-0.465,1.071-1.171,1.132-1.935  C95.056,43.827,94.762,43.064,94.191,42.498z"/><text x="0" y="115" fill="#000000" font-size="5px" font-weight="bold" font-family="'Helvetica Neue', Helvetica, Arial-Unicode, Arial, Sans-serif"></text><text x="0" y="120" fill="#000000" font-size="5px" font-weight="bold" font-family="'Helvetica Neue', Helvetica, Arial-Unicode, Arial, Sans-serif"></text></svg>