<svg xmlns="http://www.w3.org/2000/svg" xmlns:xlink="http://www.w3.org/1999/xlink" version="1.1" x="0px" y="0px" viewBox="0 0 90 112.5" enable-background="new 0 0 90 90" xml:space="preserve"><g display="none"><path display="inline" fill="none" stroke="#000000" stroke-width="3" stroke-linecap="round" stroke-miterlimit="10" d="   M19.831,61.571c1.178,4.965,3.75,9.546,7.361,13.154c5.291,5.292,12.437,7.918,19.578,7.911c7.139,0.007,14.284-2.619,19.575-7.911   c3.609-3.608,6.178-8.189,7.364-13.154c1.156-4.834,0.749-9.892-0.495-14.714c-1.938-7.52-12.438-18.107-18.483-27.192   c-5.817-8.735-6.498-12.519-7.354-14.141c0,0-0.062-0.7-0.607-0.638c-0.545-0.062-0.606,0.638-0.606,0.638   c-0.726,1.119-2.648,7.166-7.326,14.141c-6.795,10.129-15.236,17.776-18.515,27.192C18.687,51.56,18.679,56.737,19.831,61.571z"/><path display="inline" fill="none" stroke="#000000" stroke-width="3" stroke-linecap="round" stroke-miterlimit="10" d="   M45.126,75.396c5.351,0.005,10.708-1.964,14.675-5.93c2.705-2.705,4.63-6.14,5.521-9.862"/></g><g display="none"><g display="inline"><g><path fill="none" stroke="#000000" stroke-width="3" stroke-linecap="round" stroke-miterlimit="10" d="M36.617,42.691V30.712     v-7.021c0-1.813-1.47-3.283-3.284-3.283H6.15c-1.815,0-3.283,1.47-3.283,3.283v7.021v11.977"/><path fill="none" stroke="#000000" stroke-width="3" stroke-linecap="round" stroke-miterlimit="10" d="M19.79,26.282h-7.764     c-1.816,0-3.284,1.471-3.284,3.285v7.02"/><path fill="none" stroke="#000000" stroke-width="3" stroke-linecap="round" stroke-miterlimit="10" d="M2.867,31.833v11.979     v7.021c0,1.812,1.47,3.283,3.284,3.283h27.183c1.815,0,3.283-1.471,3.283-3.283v-7.021V31.835"/></g><g><path fill="none" stroke="#000000" stroke-width="3" stroke-linecap="round" stroke-miterlimit="10" d="M49.206,20.688     l2.516,11.71l1.473,6.865c0.382,1.773,2.128,2.902,3.9,2.521l26.576-5.707c1.776-0.382,2.903-2.127,2.521-3.901l-1.474-6.864     l-2.515-11.708"/><path fill="none" stroke="#000000" stroke-width="3" stroke-linecap="round" stroke-miterlimit="10" d="M69.104,33.198     l7.592-1.63c1.775-0.381,2.902-2.127,2.521-3.9l-1.473-6.865"/><path fill="none" stroke="#000000" stroke-width="3" stroke-linecap="round" stroke-miterlimit="10" d="M84.484,24.217     L81.97,12.505l-1.476-6.865c-0.383-1.772-2.126-2.901-3.9-2.519L50.019,8.827c-1.775,0.383-2.902,2.128-2.521,3.9l1.475,6.865     l2.516,11.709"/></g><g><path fill="#000000" stroke="#000000" stroke-width="3" stroke-linecap="round" stroke-miterlimit="10" d="M27.908,53.294     L22.69,64.076l-3.06,6.319c-0.79,1.632-0.107,3.597,1.525,4.388l24.467,11.841c1.635,0.792,3.596,0.107,4.387-1.524l3.059-6.319     L58.285,68"/><path fill="#000000" stroke="#000000" stroke-width="3" stroke-linecap="round" stroke-miterlimit="10" d="M53.558,77.771     l5.218-10.781l3.059-6.32c0.788-1.633,0.108-3.596-1.526-4.385L35.842,44.44c-1.635-0.791-3.598-0.106-4.386,1.525l-3.059,6.32     l-5.218,10.78"/><path fill="none" stroke="#000000" stroke-width="3" stroke-linecap="round" stroke-miterlimit="10" d="M35.905,75.396     l6.99,3.383c1.634,0.791,3.596,0.107,4.386-1.524l3.059-6.32"/></g></g></g><g><path d="M57.241,3.054L37.265,3.27h-6.447c-1.95,0-3.536,1.586-3.536,3.537v2.026v0.149v1.239c0,2,1.617,2.778,2.687,3.292   l3.051,1.091c-0.027,1.315-0.703,3.761-1.74,6.163c-0.114,0.266-0.479,0.553-0.865,0.858c-0.731,0.578-1.734,1.37-2.02,2.814   c-0.249,1.262,0.223,2.397,1.262,3.035c0.635,0.39,1.454,0.56,2.306,0.56c1.405,0,2.899-0.463,3.796-1.166   c2.719-2.129,4.122-5.54,5.135-8.827c0.059-0.188,0.112-0.374,0.168-0.561l3.361,1.202l0.041,2.074l0.01,0.432   c-1.539,0.561-2.646,2.024-2.646,3.753v5.873c0,0.047,0.01,0.092,0.014,0.139c-0.004,0.046-0.014,0.091-0.014,0.138   c0,0.829,0.671,1.5,1.5,1.5h0.457v3.439c0,5.081-5.68,10.128-8.724,11.409c-4.257,1.793-5.072,7.194-5.104,7.423l-0.757,28.564   c0,2.21,1.798,4.008,4.009,4.008h6.203h6.859h14.878c2.211,0,4.009-1.798,4.009-4.008v-32.06l-0.004-0.104   c-0.011-0.152-0.276-3.764-1.6-6.81c-0.479-1.099-1.18-2.312-1.857-3.484c-0.98-1.697-2.201-3.808-2.201-4.831   c0-1.521-0.01-2.845-0.016-3.546h0.262c0.828,0,1.5-0.671,1.5-1.5c0-0.074-0.012-0.145-0.021-0.216   c0.01-0.071,0.021-0.142,0.021-0.216v-5.717c0-2.02-1.508-3.679-3.454-3.951v-3.758c0.693-0.297,2.836-0.236,4.154-0.2   c2.863,0.079,5.572,0.156,6.92-1.32c0.387-0.424,0.819-1.157,0.717-2.255V12.55L57.241,3.054z M62.024,14.034   c-2.768-0.078-5.155-0.144-6.443,1.106c-0.52,0.505-0.794,1.165-0.795,1.908v3.886h-0.05h-0.535h-1.132h-5.603l-0.064-3.197   l-0.023-1.188l-10.236-3.637l-5.621-1.998l-0.125-0.044L31.27,10.81c-0.357-0.172-0.896-0.431-0.988-0.589V9.973V9.687V8.981V8.833   V6.806c0-0.296,0.24-0.537,0.536-0.537h6.464l18.954-0.205l10.105,7.78C65.456,14.13,63.272,14.069,62.024,14.034z M33.908,24.507   c-0.621,0.486-2.036,0.641-2.561,0.468c0.08-0.301,0.354-0.542,0.926-0.995c0.6-0.473,1.346-1.062,1.76-2.023   c0.441-1.021,1.589-3.856,1.903-6.309l2.296,0.821C37.334,19.519,36.151,22.75,33.908,24.507z M56.494,36.138   c0,1.828,1.265,4.016,2.604,6.333c0.636,1.1,1.293,2.237,1.703,3.179c1.041,2.395,1.32,5.369,1.354,5.777v32   c0,0.556-0.452,1.008-1.009,1.008H46.27H39.41h-6.203c-0.557,0-1.009-0.452-1.01-0.969l0.738-28.248   c0.098-0.529,0.818-3.973,3.287-5.013c3.568-1.501,10.561-7.382,10.561-14.174v-3.439h9.695   C56.484,33.278,56.494,34.608,56.494,36.138z M58.24,24.942v4.649H44.826v-4.649c0-0.556,0.452-1.007,1.008-1.007h7.235h1.667   h2.496C57.788,23.935,58.24,24.386,58.24,24.942z"/></g><g display="none"><g display="inline"><path fill="#000000" stroke="#000000" stroke-width="3" stroke-linecap="round" stroke-miterlimit="10" d="M78.587,22.965    L47.378,5.024c-1.372-0.788-3.06-0.786-4.428,0.008L11.808,23.09c-1.369,0.792-2.21,2.257-2.207,3.838l0.067,35.997    c0.002,1.582,0.848,3.042,2.221,3.832l31.208,17.94c1.373,0.788,3.06,0.786,4.429-0.009l31.142-18.058    c1.368-0.793,2.21-2.256,2.208-3.839l-0.068-35.997C80.805,25.214,79.959,23.754,78.587,22.965z M54.331,60.542    c-8.662,5.021-19.75,2.071-24.773-6.59c-5.022-8.66-2.072-19.75,6.589-24.771c8.66-5.021,19.75-2.072,24.771,6.587    C65.939,44.43,62.99,55.521,54.331,60.542z"/></g></g><g display="none"><g display="inline"><path fill="none" stroke="#000000" stroke-width="3" stroke-linecap="round" stroke-miterlimit="10" d="M19.864,37.249h28.958    c0,0,12.642,1.188,12.642-10.155c0-7.352-7.922-12.258-14.109-6.722c-2.136,1.911-3.226,5.204-1.719,7.79"/><path fill="none" stroke="#000000" stroke-width="3" stroke-linecap="round" stroke-miterlimit="10" d="M19.864,55.416h38.467    c0,0,12.643-1.188,12.643,10.157c0,7.349-7.922,12.255-14.111,6.719c-2.136-1.911-3.225-5.204-1.719-7.79"/><path fill="none" stroke="#000000" stroke-width="3" stroke-linecap="round" stroke-miterlimit="10" d="M3.771,46.518h70.451    c0,0,12.642,1.189,12.642-10.157c0-7.349-7.921-12.255-14.109-6.719c-2.137,1.911-3.226,5.204-1.72,7.79"/></g></g><text x="0" y="105" fill="#000000" font-size="5px" font-weight="bold" font-family="'Helvetica Neue', Helvetica, Arial-Unicode, Arial, Sans-serif"></text><text x="0" y="110" fill="#000000" font-size="5px" font-weight="bold" font-family="'Helvetica Neue', Helvetica, Arial-Unicode, Arial, Sans-serif"></text></svg>