<svg xmlns="http://www.w3.org/2000/svg" xmlns:xlink="http://www.w3.org/1999/xlink" version="1.1" x="0px" y="0px" viewBox="0 0 504.004 630" style="enable-background:new 0 0 504.004 504;" xml:space="preserve"><g><path d="M407.954,196.69c0,2.21,1.79,4,4,4h88.05c2.21,0,4-1.79,4-4c0-2.21-1.79-4-4-4h-88.05   C409.744,192.69,407.954,194.48,407.954,196.69z"/><path d="M500.004,309.17h-115.25c-2.21,0-4,1.79-4,4c0,2.21,1.79,4,4,4h115.25c2.21,0,4-1.79,4-4   C504.004,310.96,502.214,309.17,500.004,309.17z"/><path d="M353.104,393.22c21.47-34.51,15.06-71.99,13.42-79.66l12.85-29.73c4.81-11.15,9.05-36.52,5.17-46.73   c-1.46-3.85-3.87-7.49-7.08-10.79l95.36-220.72c0.53-1.24,0.41-2.66-0.33-3.79c-0.74-1.12-1.99-1.8-3.34-1.8h-34.16   c-1.6,0-3.04,0.95-3.67,2.41l-89.99,208.29c-4.61-0.07-8.9,0.66-12.71,2.24c-10.09,4.18-25.66,24.65-30.48,35.8l-12.26,28.37   c-5.52-0.2-18.36-0.18-34.55,2.96l2.12-24.46c1.17-0.69,2.35-1.38,3.5-2.1c25.24-15.88,39.13-37.18,39.13-59.99   c0-13.02-4.71-25.93-13.63-37.46v-7.77c0-4.04-1.57-7.85-4.44-10.7c-2.86-2.86-6.65-4.42-10.69-4.42c-0.01,0-0.02,0-0.03,0   c-1.3,0-2.36,0-3.24,0l1.31-15.12c0.1-1.11-0.28-2.22-1.04-3.05c-0.75-0.82-1.82-1.29-2.94-1.29h-23.85   c-4.92-12.27-13.14-21.19-22.64-23.58c-7.3-1.84-13.15-0.28-18.81,1.24c-3.79,1.01-7.37,1.97-11.47,1.97   c-3.52,0-7.46-0.85-11.62-1.75c-8.1-1.76-17.29-3.74-27-0.29c-11.84,4.22-18.28,16.77-20.64,22.41h-57.02   c-1.12,0-2.19,0.47-2.95,1.29c-0.76,0.83-1.13,1.94-1.04,3.05l1.31,15.12c-0.88,0-1.93,0-3.24,0c-0.01,0-0.02,0-0.03,0   c-4.04,0-7.83,1.56-10.69,4.42c-2.86,2.85-4.44,6.66-4.44,10.7v7.77c-8.91,11.53-13.63,24.44-13.63,37.46   c0,22.81,13.9,44.11,39.13,59.99c1.15,0.72,2.33,1.41,3.51,2.1l6.63,76.6c-2.27,0.34-4.36,0.76-6.24,1.3   c-10.45,3.02-19.65,8.39-26.23,14.99c-8.93-1.04-39.72-3.28-48.22,13.62c-6.48,12.89,2.68,23.43,10.04,31.9   c4.07,4.67,7.91,9.09,9.13,13.31c1.31,4.54,0.75,10.67,0.16,17.16c-1.03,11.34-2.21,24.2,6.64,33.09   c7.98,8.01,21.85,8.22,35.26,8.43c9.47,0.15,19.26,0.3,25.32,3.36c5.04,2.56,9.87,7.3,14.99,12.31   c9.86,9.69,21.05,20.66,39.01,22.12c1.64,0.14,3.31,0.2,5,0.2c14.36,0,30.42-4.54,46-8.95c12.86-3.64,25.01-7.07,35.97-8.06   c10.49-0.94,21.33-0.18,32.8,0.62c16.81,1.18,35.87,2.52,57.36-1.54c18.14-3.42,36.58-11.27,50.59-21.54   c15.55-11.4,24.11-24.65,24.11-37.31C394.584,405.47,365.914,396.25,353.104,393.22z M143.654,446.5c-4.07-2.55-8.69-5.44-14.38-7   c-5.91-1.61-11.53-1.13-16.5-0.71c-6.23,0.53-11.15,0.95-15.51-2.31c-2.52-1.88-3.57-4.38-4.12-7.29   c6.99-4.4,30.7-18.48,56.89-24.48c10.54-2.42,24.14-3.71,38.53-5.08c30.28-2.88,64.59-6.14,93.68-20.55   c37.26-18.47,59.61-56.1,65.83-67.71l9.64,4.16c-3.09,13.13-16.65,63.82-45.45,82.9c-23.44,15.54-45.09,17.84-66.03,20.07   c-9.41,1-18.29,1.95-27.1,4.05c-16.25,3.87-29.56,12.79-40.26,19.96c-7.83,5.24-14.59,9.77-19.13,9.96   C153.614,452.74,148.994,449.85,143.654,446.5z M340.674,308.17c-6.3,11.48-27.82,46.8-61.99,63.74   c-27.76,13.76-61.29,16.94-90.87,19.76c-14.67,1.39-28.52,2.71-39.56,5.24c-24.44,5.6-46.23,17.52-56.11,23.48   c-0.5-3.73-1.54-7.52-4.63-10.4c-2.64-2.46-5.78-3.52-9.09-4c9.22-6.21,24.81-15.44,43.18-21.08c11.7-3.6,29.61-6.39,48.57-9.35   c31.09-4.85,66.34-10.35,92.56-21.48c36.16-15.35,55.77-43.44,61.61-52.97L340.674,308.17z M343.234,393.63   c-20.83,29.3-61.5,37.95-91.2,44.26c-7.36,1.57-13.72,2.92-18.96,4.42c-9.93,2.85-19.38,8.19-28.52,13.37   c-13.52,7.65-26.3,14.88-36.05,10.67c-2.63-1.14-4.89-3.17-6.76-6.05c6.31-0.93,13.13-5.49,21.58-11.15   c10.16-6.81,22.82-15.28,37.67-18.82c8.3-1.98,16.94-2.9,26.08-3.87c20.88-2.23,44.54-4.75,69.61-21.36   c23.26-15.41,36.98-48.07,43.9-69.84C360.654,351.12,357.564,373.48,343.234,393.63z M305.494,251.91   c4.5-10.43,18.81-28.52,26.19-31.58c6.81-2.82,16.03-2.01,25.95,2.27c9.91,4.29,16.82,10.44,19.43,17.34   c2.84,7.47-0.53,30.29-5.04,40.72l-2.78,6.44l-66.54-28.75L305.494,251.91z M267.334,181.73c7.16,0,13.16-5.01,14.72-11.7   c4.01,7.54,6.03,15.4,6.03,23.49c0,20.22-12.85,38.62-33.78,52.26l5.54-64.05H267.334z M148.674,98.84   c7.57-2.69,15.22-1.04,22.63,0.57c3.98,0.86,7.76,1.67,11.54,1.88c7.29,7.81,11.03,17.17,11.4,28.58c0.07,2.16,1.85,3.87,4,3.87   c0.04,0,0.09,0,0.13-0.01c2.21-0.07,3.94-1.92,3.87-4.13c-0.37-11.09-3.63-20.86-9.7-29.13c1.98-0.41,3.85-0.9,5.61-1.37   c5.09-1.37,9.5-2.54,14.79-1.21c8.98,2.26,19.11,15.1,21.11,35.29c1.42,14.4,1.82,40.47-11.55,53.22   c-6.69,6.4-23.94,10.83-39.25,10.09c-10.16-0.49-17.79-3.12-21.5-7.41c-5.77-6.69-3.24-14.78,1.61-27.29   c2.71-7.01,5.52-14.26,5.52-21.37c0-17.81-8.86-32.97-9.24-33.61c-1.12-1.9-3.57-2.52-5.47-1.4c-1.9,1.12-2.53,3.57-1.41,5.48   c0.02,0.03,0.61,1.05,1.47,2.82h-20.06C136.734,108.65,141.504,101.39,148.674,98.84z M41.624,193.52c0-8.09,2.02-15.95,6.03-23.49   c1.56,6.69,7.56,11.7,14.73,11.7h7.48l5.55,64.05C54.484,232.14,41.624,213.74,41.624,193.52z M72.694,121.71h84.82   c1.77,5.19,3.37,11.77,3.37,18.71c0,5.62-2.53,12.15-4.98,18.47c-4.47,11.54-9.54,24.6-0.2,35.42c6.6,7.64,18.41,9.75,27.16,10.17   c1.29,0.06,2.59,0.09,3.89,0.09c16.63,0,33.53-4.98,41.28-12.38c15.03-14.34,15.9-40.44,13.98-59.8c-0.37-3.7-1.01-7.27-1.88-10.68   h16.88l-11.18,129.09c-21.67,11.68-50.01,18.78-80.98,18.78c-30.97,0-59.31-7.1-80.98-18.78L72.694,121.71z M245.024,260.14   l-1.88,21.74c-3.43,0.85-6.97,1.84-10.58,3c-16.1,5.15-31.85,14.36-47.09,23.26c-13.11,7.67-25.51,14.91-35.95,18.09   c-12.25,3.73-28.43,4.16-42.71,4.54c-5.74,0.16-11.11,0.3-15.96,0.63l-6.17-71.26c22.85,11.29,50.77,17.44,80.17,17.44   C194.254,277.58,222.184,271.43,245.024,260.14z M49.634,363.31c4.09-9.49,15.57-18.17,29.24-22.12   c6.38-1.84,16.96-2.12,28.16-2.42c14.78-0.39,31.53-0.84,44.82-4.89c11.34-3.45,24.13-10.92,37.66-18.83   c14.86-8.69,30.23-17.67,45.49-22.56c26.14-8.37,48.59-7.52,52.5-7.29l7.72,3.34c-8.88,7.26-28.82,22.59-50.29,32.55   c-18.75,8.7-65.76,18.56-103.54,26.49c-21.41,4.49-39.9,8.37-50.07,11.33c-16.38,4.77-31.67,13.52-41.6,19.99   C48.514,374.74,47.414,368.43,49.634,363.31z M46.694,392.92c0.14-1.54,0.95-2.93,2.22-3.82c8.68-6.08,26.02-17.09,44.65-22.51   c9.87-2.87,28.22-6.72,49.48-11.18c38.17-8.01,85.68-17.98,105.26-27.06c25.66-11.91,48.49-30.57,55.17-36.25l13.41,5.79   c-6.09,9.53-24.73,35.01-57.27,48.83c-25.32,10.74-60.04,16.16-90.67,20.94c-20.09,3.13-37.44,5.84-49.69,9.6   c-27.37,8.4-48.32,23.92-53.59,28.06c-3.14-0.26-6.28-0.86-9.3-2.38c-3.1-1.56-5.87-3.57-8.24-5.99   C47.064,395.87,46.554,394.44,46.694,392.92z"/><path d="M401.284,291.43h48.93c2.2,0,4-1.79,4-4c0-2.21-1.8-4-4-4h-48.93c-2.21,0-4,1.79-4,4   C397.284,289.64,399.074,291.43,401.284,291.43z"/><path d="M449.164,233.46c2.21,0,4-1.79,4-4s-1.79-4-4-4h-50.1c-2.21,0-4,1.79-4,4s1.79,4,4,4H449.164z"/><path d="M431.194,403.56c-13.84,0-24.68,7.24-24.68,16.48c0,9.25,10.84,16.49,24.68,16.49c13.85,0,24.69-7.24,24.69-16.49   C455.884,410.8,445.044,403.56,431.194,403.56z M431.194,428.53c-9.55,0-16.68-4.48-16.68-8.49c0-4,7.13-8.48,16.68-8.48   c9.56,0,16.69,4.48,16.69,8.48C447.884,424.05,440.754,428.53,431.194,428.53z"/><path d="M414.424,393.66c22.68,0,39.79-8.69,39.79-20.21c0-11.53-17.11-20.22-39.79-20.22c-22.68,0-39.79,8.69-39.79,20.22   C374.634,384.97,391.744,393.66,414.424,393.66z"/></g><text x="0" y="519" fill="#000000" font-size="5px" font-weight="bold" font-family="'Helvetica Neue', Helvetica, Arial-Unicode, Arial, Sans-serif"></text><text x="0" y="524" fill="#000000" font-size="5px" font-weight="bold" font-family="'Helvetica Neue', Helvetica, Arial-Unicode, Arial, Sans-serif"></text></svg>