<svg xmlns="http://www.w3.org/2000/svg" xmlns:xlink="http://www.w3.org/1999/xlink" version="1.1" x="0px" y="0px" viewBox="0 0 100 125" enable-background="new 0 0 100 100" xml:space="preserve"><g><path d="M71.709,48.277L53,70.418V21c0-1.657-1.343-3-3-3s-3,1.343-3,3v48.806L29.316,48.308c-1.052-1.279-2.943-1.465-4.223-0.41   c-1.279,1.052-1.463,2.942-0.41,4.223l23.184,28.185c0.565,0.687,1.406,1.088,2.297,1.094c0.006,0,0.013,0,0.02,0   c0.883,0,1.722-0.389,2.291-1.063L76.291,52.15c1.07-1.266,0.911-3.158-0.354-4.228C74.669,46.852,72.776,47.013,71.709,48.277z"/></g><text x="0" y="115" fill="#000000" font-size="5px" font-weight="bold" font-family="'Helvetica Neue', Helvetica, Arial-Unicode, Arial, Sans-serif"></text><text x="0" y="120" fill="#000000" font-size="5px" font-weight="bold" font-family="'Helvetica Neue', Helvetica, Arial-Unicode, Arial, Sans-serif"></text></svg>