<svg xmlns="http://www.w3.org/2000/svg" xmlns:xlink="http://www.w3.org/1999/xlink" version="1.1" x="0px" y="0px" viewBox="0 0 65 81.25" enable-background="new 0 0 65 65" xml:space="preserve"><path d="M32.5,0C14.551,0,0,14.551,0,32.5S14.551,65,32.5,65S65,50.449,65,32.5S50.449,0,32.5,0z M52.715,30.371l-2.217,2.26  l-1.017,2.383l-0.207,2.63c-0.026,0.341-0.23,0.643-0.537,0.795l-0.38,0.19l-0.349,0.854c-0.117,0.288-0.364,0.503-0.665,0.578  l-0.664,0.166l-0.722,1.238c-0.043,0.073-0.094,0.14-0.153,0.199l-1.129,1.128l-0.966,1.428c-0.094,0.139-0.222,0.251-0.371,0.326  l-0.58,0.289l-1.488,1.405c-0.164,0.155-0.377,0.249-0.603,0.264l-0.052,0.004l0.075,0.237c0.105,0.337,0.02,0.704-0.223,0.96  l-2.213,2.347c-0.046,0.049-0.097,0.093-0.152,0.131l-1.017,0.708c-0.06,0.041-0.121,0.075-0.188,0.102l-0.974,0.398  c-0.118,0.049-0.243,0.072-0.368,0.072c-0.145,0-0.288-0.031-0.42-0.094l-0.93-0.442c-0.237-0.114-0.418-0.318-0.504-0.568  l-0.761-2.243l-0.722-0.664l-0.838-0.168c-0.345-0.069-0.626-0.318-0.736-0.653L30,44.649l-1.147-2.485l-1.515-0.648  c-0.106-0.046-0.203-0.109-0.287-0.188l-0.841-0.798c-0.09-0.085-0.162-0.187-0.214-0.298l-0.439-0.952l-0.826-0.688L23.79,38.06  c-0.117-0.065-0.217-0.153-0.298-0.259l-0.891-1.175l-1.199-0.899l-1.822-0.705c-0.285-0.109-0.502-0.348-0.586-0.642l-0.122-0.425  l-0.89-1.083c-0.076-0.092-0.134-0.198-0.171-0.311l-0.176-0.527l-1.297-1.844l-0.98,0.029c-0.196,0.006-0.39-0.048-0.556-0.155  l-1.727-1.106c-0.059-0.038-0.113-0.082-0.163-0.131l-0.531-0.531c-0.149-0.149-0.246-0.343-0.275-0.551l-0.089-0.62  c-0.022-0.163-0.004-0.328,0.053-0.481l0.266-0.708c0.088-0.235,0.264-0.427,0.49-0.536l0.373-0.18l-0.016-0.04  c-0.197-0.493,0.037-1.054,0.527-1.26l2.833-1.195l4.022-1.969c0.096-0.048,0.2-0.078,0.306-0.092l3.142-0.398  c0.031-0.004,0.063-0.006,0.093-0.007l7.259-0.221c0.25-0.004,0.468,0.072,0.65,0.223l1.019,0.841  c0.102,0.083,0.185,0.188,0.246,0.306l0.469,0.911l1.33-0.231l5.628-0.671c0.133-0.016,0.264-0.005,0.393,0.033l1.195,0.354  c0.076,0.023,0.151,0.055,0.22,0.096l5.532,3.275c0.044,0.025,0.084,0.054,0.122,0.086l4.471,3.673  c0.212,0.173,0.341,0.427,0.355,0.703C53.008,29.909,52.906,30.176,52.715,30.371z"/><text x="0" y="80" fill="#000000" font-size="5px" font-weight="bold" font-family="'Helvetica Neue', Helvetica, Arial-Unicode, Arial, Sans-serif"></text><text x="0" y="85" fill="#000000" font-size="5px" font-weight="bold" font-family="'Helvetica Neue', Helvetica, Arial-Unicode, Arial, Sans-serif"></text></svg>