<svg xmlns="http://www.w3.org/2000/svg" version="1.1" viewBox="-5.0 -10.0 110.0 135.0">
 <path d="m49.977 24.809c-1.2461 0-2.2539-1.0117-2.2539-2.2539v-20.301c0-1.2461 1.0078-2.2539 2.2539-2.2539 0.59766 0 1.1719 0.23828 1.5938 0.66016 0.42578 0.42188 0.66406 0.99609 0.66406 1.5938v20.301c0 0.59766-0.23828 1.1719-0.66406 1.5938-0.42187 0.42187-0.99609 0.66016-1.5938 0.66016z"/>
 <path d="m49.977 100c-1.2344-0.023438-2.2305-1.0195-2.2539-2.2539v-20.301c0-1.2422 1.0078-2.2539 2.2539-2.2539 0.59766 0 1.1719 0.23828 1.5938 0.66016 0.42578 0.42188 0.66406 0.99609 0.66406 1.5938v20.301c0 0.59766-0.23828 1.1719-0.66406 1.5938-0.42187 0.42188-0.99609 0.66016-1.5938 0.66016z"/>
 <path d="m97.746 52.234h-20.301c-1.2422 0-2.2539-1.0117-2.2539-2.2578 0-1.2461 1.0117-2.2539 2.2539-2.2539h20.301c1.2344 0.023438 2.2305 1.0195 2.2539 2.2539 0 0.59766-0.23828 1.1719-0.66016 1.5938-0.42188 0.42578-0.99609 0.66406-1.5938 0.66406z"/>
 <path d="m22.555 52.234h-20.301c-1.2461 0-2.2539-1.0117-2.2539-2.2578 0-1.2461 1.0078-2.2539 2.2539-2.2539h20.301c0.59766 0 1.1719 0.23828 1.5938 0.66016 0.42187 0.42188 0.66016 0.99609 0.66016 1.5938 0 0.59766-0.23828 1.1719-0.66016 1.5938-0.42188 0.42578-0.99609 0.66406-1.5938 0.66406z"/>
 <path d="m69.371 32.836c-0.62891 0.019531-1.2461-0.20703-1.7109-0.62891-0.86719-0.89453-0.86719-2.3125 0-3.2031l14.344-14.344c0.42188-0.42578 1-0.66797 1.6016-0.66797 0.60156 0 1.1758 0.24219 1.6016 0.66797 0.43359 0.41016 0.68359 0.98047 0.68359 1.5781 0 0.59766-0.25 1.168-0.68359 1.5781l-14.211 14.391c-0.44531 0.40234-1.0234 0.62891-1.625 0.62891z"/>
 <path d="m16.238 86.016c-0.59766 0.007813-1.1719-0.23828-1.5781-0.67578-0.42578-0.42188-0.66797-1-0.66797-1.6016 0-0.60156 0.24219-1.1758 0.66797-1.6016l14.344-14.477c0.875-0.85938 2.2812-0.85938 3.1562 0 0.42578 0.42188 0.66797 1 0.66797 1.6016 0 0.60156-0.24219 1.1758-0.66797 1.6016l-14.117 14.477c-0.45703 0.50391-1.1289 0.75391-1.8047 0.67578z"/>
 <path d="m83.762 86.016c-0.60938 0-1.1953-0.24219-1.625-0.67578l-14.477-14.344c-0.88672-0.88281-0.88672-2.3164 0-3.2031 0.88281-0.88281 2.3164-0.88281 3.2031 0l14.344 14.344c0.42578 0.42578 0.66406 1 0.66406 1.6016 0 0.60156-0.23828 1.1797-0.66406 1.6016-0.38281 0.39453-0.89844 0.63672-1.4453 0.67578z"/>
 <path d="m30.582 32.836c-0.59766-0.003907-1.1641-0.24609-1.5781-0.67578l-14.344-14.117c-0.87109-0.87109-0.87109-2.2852 0-3.1562 0.87109-0.875 2.2852-0.875 3.1562 0l14.344 14.117c0.4375 0.41016 0.68359 0.98047 0.68359 1.5781 0 0.59766-0.24609 1.168-0.68359 1.5781-0.40625 0.4375-0.98047 0.68359-1.5781 0.67578z"/>
 <path d="m49.977 64.277c-5.7812 0-10.996-3.4844-13.211-8.8281-2.2109-5.3438-0.98828-11.492 3.1016-15.582 4.0898-4.0898 10.238-5.3125 15.582-3.1016 5.3438 2.2148 8.8281 7.4297 8.8281 13.211 0 3.793-1.5078 7.4297-4.1875 10.113-2.6836 2.6797-6.3203 4.1875-10.113 4.1875zm0-24.043c-3.9609 0-7.5352 2.3906-9.0469 6.0547-1.5117 3.6602-0.66406 7.875 2.1445 10.672 2.8086 2.793 7.0234 3.6211 10.68 2.0898 3.6562-1.5273 6.0312-5.1094 6.0117-9.0742 0-2.5898-1.0312-5.0742-2.8711-6.9062-1.8359-1.8281-4.3242-2.8477-6.918-2.8359z"/>
<text x="0.0" y="117.5" font-size="5.0" font-weight="bold" font-family="Arbeit Regular, Helvetica, Arial-Unicode, Arial, Sans-serif" fill="#000000"></text><text x="0.0" y="122.5" font-size="5.0" font-weight="bold" font-family="Arbeit Regular, Helvetica, Arial-Unicode, Arial, Sans-serif" fill="#000000"></text></svg>