<svg xmlns="http://www.w3.org/2000/svg" xmlns:xlink="http://www.w3.org/1999/xlink" version="1.1" x="0px" y="0px" viewBox="0 0 100 125" style="enable-background:new 0 0 100 100;" xml:space="preserve"><path d="M64.28,10H35.72c-2.83,0-5.15,2.32-5.15,5.15v69.7c0,1.45,0.6,2.76,1.57,3.69c0.93,0.9,2.19,1.45,3.58,1.45h28.55  c1.41,0,2.69-0.57,3.62-1.49c0.94-0.93,1.53-2.23,1.53-3.65v-69.7C69.43,12.32,67.11,10,64.28,10z M59.25,13.77  c0.5,0,0.91,0.41,0.91,0.91c0,0.5-0.41,0.91-0.91,0.91c-0.5,0-0.91-0.41-0.91-0.91C58.34,14.17,58.74,13.77,59.25,13.77z   M44.34,13.87h11.49c0.44,0,0.8,0.36,0.8,0.8c0,0.44-0.36,0.8-0.8,0.8H44.34c-0.44,0-0.8-0.36-0.8-0.8  C43.53,14.23,43.89,13.87,44.34,13.87z M50,88.26c-1.98,0-3.58-1.6-3.58-3.58c0-1.98,1.6-3.58,3.58-3.58c1.98,0,3.58,1.6,3.58,3.58  C53.58,86.66,51.98,88.26,50,88.26z M67.02,79.69H33.09V19.35h33.93V79.69z"/><text x="0" y="115" fill="#000000" font-size="5px" font-weight="bold" font-family="'Helvetica Neue', Helvetica, Arial-Unicode, Arial, Sans-serif"></text><text x="0" y="120" fill="#000000" font-size="5px" font-weight="bold" font-family="'Helvetica Neue', Helvetica, Arial-Unicode, Arial, Sans-serif"></text></svg>